<?xml version="1.0" standalone="no"?>
<!DOCTYPE svg PUBLIC "-//W3C//DTD SVG 20010904//EN"
 "http://www.w3.org/TR/2001/REC-SVG-20010904/DTD/svg10.dtd">
<svg version="1.0" xmlns="http://www.w3.org/2000/svg"
 width="1080.000000pt" height="1080.000000pt" viewBox="0 0 1080.000000 1080.000000"
 preserveAspectRatio="xMidYMid meet">
<metadata>
Created by potrace 1.14, written by Peter Selinger 2001-2017
</metadata>
<g transform="translate(0.000000,1080.000000) scale(0.100000,-0.100000)"
fill="#000000" stroke="none">
<path d="M0 5400 l0 -5400 5400 0 5400 0 0 5400 0 5400 -5400 0 -5400 0 0
-5400z m6013 4226 c191 -33 375 -95 560 -187 174 -87 437 -283 486 -362 16
-26 45 -46 128 -86 1036 -501 1784 -1376 2109 -2464 66 -223 108 -429 136
-662 17 -145 17 -663 0 -810 -22 -185 -62 -402 -103 -565 -47 -184 -123 -415
-148 -450 -9 -14 -27 -51 -40 -82 -51 -126 -81 -99 -81 71 l1 116 19 -24 c11
-13 20 -19 20 -13 0 5 -6 15 -14 21 -22 19 -35 89 -40 226 -9 258 -85 521
-209 725 -176 288 -489 550 -913 762 -104 52 -207 101 -229 110 -39 14 -43 22
-132 199 -102 205 -141 307 -174 460 -33 147 -31 369 4 711 39 368 34 518 -24
743 -109 428 -401 826 -781 1063 -374 234 -811 314 -1236 226 -307 -63 -584
-215 -818 -448 -180 -180 -280 -319 -384 -537 -155 -326 -194 -616 -140 -1049
21 -175 32 -381 27 -509 -10 -229 -49 -363 -189 -653 l-91 -186 -76 -32 c-274
-114 -623 -340 -835 -541 -253 -240 -391 -494 -455 -839 -20 -107 -41 -396
-41 -571 0 -75 -3 -99 -15 -109 -12 -10 -19 -10 -27 -2 -15 15 -48 101 -48
125 0 10 -4 16 -9 12 -19 -11 -125 295 -175 506 -90 373 -111 587 -103 1031 7
376 25 521 108 853 134 533 380 1031 728 1470 383 483 863 865 1421 1130 55
26 83 47 103 76 53 74 250 228 402 315 217 123 454 205 690 239 127 18 462 13
588 -9z m-556 -408 c29 -27 29 -60 1 -93 -17 -19 -49 -32 -128 -54 -157 -42
-259 -90 -417 -195 -81 -55 -121 -60 -153 -19 -52 67 23 143 255 257 92 45
244 100 330 119 51 12 89 6 112 -15z m-808 -474 c28 -35 26 -66 -4 -102 -46
-54 -117 -51 -132 6 -10 40 -4 64 25 95 35 37 83 37 111 1z m332 -368 c221
-40 438 -201 564 -420 l29 -49 -50 7 c-196 27 -308 37 -514 42 -214 6 -513 -5
-659 -22 l-54 -7 7 44 c17 114 127 263 244 332 133 78 272 101 433 73z m1729
-12 c150 -44 283 -152 345 -279 19 -38 38 -90 41 -114 l7 -43 -44 5 c-24 3
-157 11 -296 18 -277 14 -593 4 -812 -26 -62 -9 -116 -13 -118 -11 -12 11 71
127 152 214 195 210 490 305 725 236z m-2090 -557 c0 -8 -18 -39 -41 -71 -41
-57 -70 -70 -77 -34 -5 25 54 106 81 111 12 2 25 5 30 6 4 0 7 -5 7 -12z m544
5 c2 -4 -37 -64 -87 -133 -51 -69 -152 -207 -225 -307 -145 -198 -153 -204
-200 -154 -28 30 -67 124 -65 155 2 16 56 94 251 360 l64 87 129 0 c70 0 130
-4 133 -8z m1226 -12 c-29 -55 -336 -450 -350 -450 -9 0 -46 124 -66 227 l-17
83 24 46 c13 25 41 61 62 80 l37 34 160 0 c158 0 160 0 150 -20z m-612 -131
c11 -7 25 -21 32 -33 16 -25 51 -157 45 -167 -3 -4 -24 0 -47 8 -43 15 -165
13 -231 -3 -27 -6 -28 -5 -21 22 3 16 16 58 28 93 17 53 27 67 56 83 38 21
103 19 138 -3z m-1433 -29 c41 -26 61 -73 85 -207 30 -167 55 -229 115 -289
39 -39 66 -56 106 -68 72 -22 208 -36 351 -36 279 0 388 43 470 187 16 28 35
56 42 62 7 6 48 20 91 31 75 19 82 19 144 4 109 -27 135 -41 162 -85 104 -174
161 -199 448 -199 305 1 413 23 496 104 63 62 83 112 119 295 15 74 34 147 42
162 13 27 59 59 84 59 13 0 13 -519 0 -614 -12 -81 -29 -136 -66 -209 -96
-188 -232 -314 -503 -465 -10 -6 -13 -30 -12 -97 0 -50 -3 -116 -7 -148 -5
-31 -6 -59 -4 -62 15 -14 526 299 623 382 25 21 59 17 59 -7 0 -72 -221 -640
-444 -1141 -8 -19 -76 -177 -151 -352 -74 -175 -169 -390 -210 -478 -41 -88
-75 -162 -75 -165 0 -2 -32 -75 -71 -162 -39 -86 -80 -177 -91 -202 -83 -184
-128 -270 -144 -270 -10 0 -14 -5 -10 -16 3 -8 -5 -37 -19 -64 -21 -42 -31
-51 -67 -61 -126 -34 -300 -31 -441 8 -11 3 -30 29 -44 61 -14 32 -30 64 -37
72 -7 8 -20 33 -29 55 -8 22 -49 110 -91 195 -192 396 -544 1195 -846 1925
-76 183 -109 271 -166 440 -46 134 -53 175 -31 175 6 0 66 -39 132 -86 170
-121 517 -325 530 -312 3 2 0 66 -6 141 -5 76 -8 141 -5 145 8 13 -7 26 -64
56 -263 137 -444 358 -495 601 -11 52 -15 145 -15 363 0 160 3 292 6 292 4 0
21 -9 39 -20z m-347 -2002 c6 -7 18 -42 27 -78 40 -159 119 -384 204 -584 28
-66 49 -121 48 -123 -5 -4 -289 147 -309 165 -16 14 -18 42 -18 308 0 161 3
299 6 308 7 19 28 21 42 4z m3447 -306 l0 -313 -164 -85 c-90 -47 -161 -79
-158 -72 154 379 229 587 257 713 13 57 26 77 49 73 14 -3 16 -38 16 -316z
m-4595 -211 c-41 -83 -107 -267 -131 -367 -41 -173 -49 -288 -49 -706 l0 -398
-25 -16 c-31 -20 -70 -12 -86 18 -17 32 -18 739 -1 843 18 108 57 253 93 346
28 73 116 231 149 267 8 9 29 34 45 56 40 52 42 32 5 -43z m1696 -809 c67
-136 142 -283 166 -327 144 -259 169 -307 165 -311 -8 -8 -231 230 -293 311
-160 213 -304 456 -290 491 6 15 106 84 121 84 5 0 65 -112 131 -248z m2501
206 c34 -24 63 -48 63 -53 0 -18 -119 -225 -195 -340 -41 -60 -103 -146 -140
-190 -67 -80 -246 -267 -252 -262 -1 2 39 80 90 174 51 94 153 292 227 441 74
150 137 272 140 272 3 0 33 -19 67 -42z m-3798 -74 c20 -26 21 -38 21 -383 0
-196 -4 -361 -8 -367 -25 -37 -81 -36 -96 2 -3 8 -6 178 -6 377 0 321 2 362
17 379 23 25 48 22 72 -8z m4987 5 c17 -19 18 -43 19 -384 0 -360 0 -365 -22
-386 -27 -27 -65 -20 -81 16 -16 34 -17 691 -1 732 18 47 53 57 85 22z m2025
-1155 c113 -33 227 -118 294 -220 44 -65 47 -100 14 -125 -41 -31 -195 -109
-216 -109 -10 0 -39 21 -63 46 -54 55 -93 74 -157 74 -123 0 -191 -119 -128
-226 27 -46 87 -96 270 -226 253 -180 345 -316 345 -508 0 -131 -44 -241 -133
-337 -70 -75 -152 -127 -232 -148 -73 -19 -223 -19 -291 -1 -119 31 -248 125
-318 230 -46 70 -54 101 -30 128 22 23 205 118 230 118 9 0 44 -27 78 -60 95
-91 165 -110 253 -71 97 45 116 161 40 248 -18 20 -86 76 -152 125 -226 167
-266 200 -315 260 -113 135 -153 286 -115 433 44 172 176 316 335 366 72 23
218 24 291 3z m-8482 -4 c60 -16 74 -39 79 -129 6 -100 -3 -147 -33 -177 -23
-23 -31 -24 -145 -24 l-120 0 0 -700 0 -701 -25 -24 c-23 -24 -30 -25 -150
-25 -123 0 -126 1 -150 26 l-25 27 -2 696 -3 696 -138 5 c-180 6 -177 4 -177
170 0 130 7 145 72 160 52 11 774 12 817 0z m523 -18 l23 -23 5 -617 5 -617
24 -48 c28 -58 83 -98 143 -104 76 -7 153 56 178 146 6 22 10 264 10 633 l0
597 24 28 c24 28 25 28 151 28 126 0 127 0 151 -28 l24 -28 0 -618 c0 -578 -1
-623 -19 -693 -42 -165 -140 -296 -272 -367 -303 -163 -657 14 -749 375 -19
73 -20 112 -20 694 l0 617 23 20 c29 28 52 32 174 29 92 -1 105 -4 125 -24z
m1181 22 c47 -8 65 -37 136 -214 76 -191 109 -264 119 -268 5 -1 23 32 40 75
61 153 142 348 154 370 14 29 64 43 148 43 93 0 137 -15 161 -53 30 -48 47 1
-207 -595 -57 -134 -104 -250 -104 -257 0 -14 78 -211 143 -360 139 -322 177
-418 177 -445 0 -19 -9 -40 -25 -55 -23 -24 -30 -25 -149 -25 l-125 0 -24 33
c-14 17 -41 75 -60 127 -70 185 -124 315 -131 315 -4 0 -44 -92 -90 -205 -95
-236 -100 -246 -126 -260 -10 -5 -72 -10 -138 -10 -113 0 -120 1 -142 25 -15
16 -23 36 -22 57 1 18 74 202 163 408 88 206 163 382 166 391 2 8 -39 116 -92
240 -54 123 -120 278 -147 344 -101 243 -102 245 -68 288 15 19 32 27 63 30
76 7 141 7 180 1z m2343 -27 c13 -16 24 -38 24 -50 0 -21 -187 -776 -215 -867
-8 -25 -32 -115 -54 -200 -22 -85 -63 -238 -90 -340 -28 -102 -56 -204 -62
-227 -18 -66 -33 -74 -130 -71 l-84 3 -20 42 c-12 24 -29 75 -40 113 -11 39
-23 69 -28 67 -5 -1 -21 -42 -37 -90 -44 -136 -45 -137 -144 -137 -78 0 -85 2
-100 24 -9 14 -36 101 -62 193 -25 92 -57 209 -71 258 -34 121 -43 157 -42
175 0 8 34 35 75 60 42 25 99 69 126 99 39 43 52 51 59 40 5 -8 9 -20 9 -26 0
-20 20 -15 20 5 0 9 21 80 45 157 25 77 59 208 76 290 17 83 34 154 37 159 3
5 19 -44 37 -110 107 -409 130 -494 135 -494 3 0 54 198 114 440 60 242 116
454 124 470 19 40 56 50 176 47 94 -3 100 -4 122 -30z m453 -11 c15 -25 84
-163 152 -307 68 -145 161 -337 206 -428 l82 -166 0 438 c1 313 4 445 13 460
22 42 37 46 176 47 131 0 133 0 157 -26 l25 -27 0 -863 0 -862 -26 -31 -26
-31 -123 0 c-104 0 -126 3 -141 18 -16 15 -123 229 -348 695 -36 76 -70 136
-75 133 -5 -3 -9 -180 -10 -393 -2 -261 -6 -393 -13 -407 -22 -41 -38 -45
-170 -46 -116 0 -130 2 -148 20 -12 12 -25 32 -30 46 -6 15 -10 355 -10 870
l0 846 29 29 c29 29 31 29 140 29 l111 0 29 -44z m2012 6 c28 -31 29 -35 29
-138 0 -103 -1 -106 -29 -135 l-29 -29 -286 0 -286 0 0 -199 c0 -172 2 -200
16 -205 9 -3 77 -6 152 -6 124 0 139 -2 168 -22 45 -31 54 -56 54 -144 0 -146
-30 -167 -243 -172 l-147 -4 2 -206 3 -206 282 -1 282 0 30 -29 c31 -30 31
-30 31 -139 0 -107 -1 -109 -29 -138 l-29 -29 -447 0 -446 0 -24 24 c-17 18
-25 39 -30 91 -4 37 -6 426 -3 864 5 849 3 826 53 850 13 6 179 9 458 8 l439
-2 29 -33z m769 18 c147 -31 306 -149 374 -279 91 -174 95 -391 11 -567 -37
-76 -128 -176 -191 -210 -19 -10 -34 -23 -34 -28 0 -5 39 -84 87 -175 161
-310 223 -433 223 -446 0 -7 -9 -24 -21 -39 l-21 -27 -151 3 -151 3 -27 40
c-14 22 -86 158 -159 303 -117 230 -136 262 -157 262 l-23 0 0 -279 0 -278
-25 -27 c-24 -26 -26 -26 -153 -26 -125 0 -129 1 -153 26 l-24 26 -3 826 c-2
579 1 835 8 853 10 24 27 37 70 53 26 10 462 -2 520 -14z m-4467 -32 c150 -72
254 -213 277 -378 40 -286 -142 -531 -410 -549 l-85 -6 -3 -81 c-2 -71 -6 -84
-27 -104 -37 -35 -110 -33 -142 4 -23 27 -23 30 -23 267 l0 241 29 29 c44 44
98 41 146 -7 32 -32 40 -35 71 -29 45 8 110 66 125 112 14 43 7 93 -20 137
-19 30 -61 57 -133 85 l-28 11 0 156 0 157 74 -5 c58 -4 91 -13 149 -40z"/>
<path d="M6179 6871 c-14 -5 -36 -14 -50 -21 -24 -13 -147 -101 -184 -132 -40
-33 -250 -188 -257 -188 -3 0 -25 16 -48 35 -80 67 -346 263 -385 284 -40 21
-115 29 -115 12 0 -13 99 -128 147 -170 21 -18 65 -59 98 -90 120 -113 251
-224 282 -239 31 -15 34 -14 85 20 112 74 518 454 518 485 0 14 -48 17 -91 4z"/>
<path d="M4951 5782 c-19 -9 -44 -30 -55 -45 -20 -27 -21 -43 -24 -322 -2
-187 1 -308 8 -333 15 -59 68 -102 125 -102 78 0 276 78 439 174 l95 56 46
-32 c41 -29 55 -33 110 -33 56 0 69 4 110 33 l47 33 57 -35 c155 -95 393 -196
463 -196 54 0 103 25 128 65 19 31 20 49 20 350 l0 318 -25 33 c-30 39 -83 59
-133 49 -85 -16 -368 -144 -467 -211 -43 -29 -41 -29 -68 -4 -12 12 -46 28
-75 36 -64 19 -136 6 -182 -32 l-28 -24 -64 39 c-160 97 -404 201 -473 201
-11 0 -35 -8 -54 -18z m438 -364 c28 -6 51 -14 51 -18 0 -10 -138 -42 -203
-47 l-62 -5 65 41 c72 45 76 46 149 29z m749 -29 l77 -42 -70 7 c-38 3 -104
14 -145 24 l-75 18 50 16 c72 23 78 22 163 -23z"/>
<path d="M5615 4928 c-83 -77 -35 -218 74 -218 78 0 131 49 131 120 0 81 -49
130 -130 130 -32 0 -48 -7 -75 -32z"/>
<path d="M5651 4527 c-108 -38 -101 -207 10 -237 152 -41 228 175 83 236 -39
17 -48 17 -93 1z"/>
<path d="M5641 4092 c-38 -20 -71 -73 -71 -112 1 -45 35 -106 69 -120 60 -24
142 3 172 57 31 58 2 150 -57 178 -42 20 -72 19 -113 -3z"/>
<path d="M8820 2729 c0 -129 3 -244 6 -256 6 -21 12 -23 68 -23 121 0 194 39
242 130 28 52 26 190 -3 245 -48 91 -110 126 -230 133 l-83 5 0 -234z"/>
</g>
</svg>
